<?xml version="1.0" encoding="utf-8"?>
<!-- Generator: Adobe Illustrator 16.0.0, SVG Export Plug-In . SVG Version: 6.00 Build 0)  -->
<!DOCTYPE svg PUBLIC "-//W3C//DTD SVG 1.1//EN" "http://www.w3.org/Graphics/SVG/1.1/DTD/svg11.dtd">
<svg version="1.1" xmlns="http://www.w3.org/2000/svg" xmlns:xlink="http://www.w3.org/1999/xlink" x="0px" y="0px"
	 width="606.722px" height="139.53px" viewBox="0 0 606.722 139.53" enable-background="new 0 0 606.722 139.53"
	 xml:space="preserve">
<g id="Layer_1">
</g>
<g id="Layer_2">
	<g>
		<path fill="#198773" d="M62.815,138.857c-41,0-62.552-25.859-62.813-70.084l-0.001-0.241c-0.023-3.371,0-33.925,19.775-52.587
			C30.417,5.905,43.809,0.607,60.533,0.607c0.043,0,0.085,0,0.128,0c16.614,0.026,31.119,5.283,41.092,15.688
			c18.639,19.444,16.969,49.578,16.917,50.854l0,6.875L16.69,73.982c-0.625,21.625,8.577,51.5,46.125,51.5
			c24.192,0,38.167-16.333,38.67-25.433l14.997,0.1C116.69,114.607,97.94,138.857,62.815,138.857z M16.315,60.857h86.5
			c-0.834-8.566-3.492-24.655-12.969-34.498c-7.037-7.308-16.864-11.024-29.21-11.043c-0.033,0-0.067,0-0.101,0
			c-12.59,0-22.725,3.771-30.126,11.209C20.896,36.088,17.579,51.721,16.315,60.857z"/>
	</g>
	<path fill="#1B575C" d="M333.716,2.967v86.016c0,0-0.922,35.333-31.213,35.333c-0.089,0-0.172,0.002-0.261,0.002
		c-0.088,0-0.171-0.002-0.26-0.002c-30.292,0-31.213-35.333-31.213-35.333V2.967h-18.016c0,0,0,42.849,0,92.016
		c0,9.5,8.229,45,49.229,45c0.087,0,0.173-0.003,0.26-0.004c0.087,0.001,0.174,0.004,0.261,0.004c41,0,49.229-35.5,49.229-45
		c0-49.167,0-92.016,0-92.016H333.716z"/>
	<path fill="#1B575C" d="M214.149,22.316l5.667-15.167c0,0-23.814-11.991-46.667-4.833c-22.083,6.917-26.583,19.333-27.121,36.189
		c-0.206,6.46,2.381,13.518,6.454,18.77c7.289,9.399,18.808,15.152,23.833,16.542c7.833,2.167,27.042,11.25,29,19.833
		c2.036,8.924,2.208,16.75-6,23.958c-9.83,8.632-33.75,7.75-51.333-2.75c-5.167,16.125-5.167,16.125-5.167,16.125
		s20.919,12.118,49.125,7.125c26.833-4.75,32.847-25.125,32.833-36.417c-0.013-11.171-1.458-20.833-12.542-29.583
		c-3.831-3.025-11.167-7.625-19.584-10.958c-13.841-5.482-28.083-10.167-28.208-25.792c-0.088-11.042,7.173-16.791,16.339-19.124
		s25.369,1.415,29.369,3.749S214.149,22.316,214.149,22.316z"/>
	<polygon fill="#1B575C" points="587.737,2.951 587.737,58.982 524.722,58.982 524.722,2.951 505.737,2.951 505.737,136.982 
		524.722,136.982 524.722,74.982 587.737,74.982 587.737,136.982 606.722,136.982 606.722,2.951 	"/>
	<path fill="#1B575C" d="M480.932,133.722c0,0-0.973,0.263-2.798,0.757c-0.437,0.129-0.98,0.275-1.603,0.435
		c-0.611,0.159-1.279,0.333-2,0.52c-1.443,0.371-3.052,0.719-4.887,1.145c-3.661,0.815-8.159,1.682-13.433,2.28
		c-2.635,0.313-5.468,0.503-8.476,0.632c-3.013,0.091-6.203,0.027-9.554-0.202c-6.681-0.526-14.07-1.837-21.528-4.841
		c-7.426-2.985-14.893-7.71-21-14.22c-6.157-6.461-10.834-14.555-13.773-23.185c-0.741-2.16-1.338-4.361-1.893-6.575
		c-0.504-2.222-0.934-4.463-1.245-6.716c-0.646-4.503-0.901-9.046-0.833-13.562c0.166-9.03,1.668-17.957,4.361-26.343l0.25-0.787
		l0.175-0.533l0.124-0.35l0.495-1.4c0.44-1.152,0.891-2.334,1.349-3.355c0.921-2.113,1.942-4.183,3.104-6.168
		c2.299-3.98,5.058-7.66,8.15-10.89c6.179-6.505,13.562-11.12,20.816-14.17c7.28-3.071,14.464-4.693,21.076-5.517
		c6.622-0.826,12.706-0.814,18.058-0.41c5.355,0.401,9.987,1.205,13.776,2.094c3.789,0.891,6.738,1.861,8.74,2.593
		c2.002,0.738,3.062,1.205,3.062,1.205l-5.76,14.145c0,0-0.797-0.318-2.359-0.832c-1.563-0.508-3.913-1.195-7.013-1.81
		c-3.097-0.613-6.948-1.146-11.399-1.321c-4.445-0.174-9.495-0.005-14.853,0.811c-5.348,0.819-11.017,2.304-16.439,4.785
		c-5.421,2.468-10.559,5.959-14.672,10.557c-4.152,4.59-7.187,10.221-9.014,16.738c-1.964,6.777-2.943,13.948-2.862,21.032
		c0.083,7.087,1.318,14.065,3.488,20.438c2.161,6.378,5.27,12.175,9.209,16.974c1.953,2.417,4.125,4.573,6.43,6.501
		c2.323,1.906,4.822,3.524,7.407,4.884c5.169,2.733,10.746,4.296,16.075,4.932c5.335,0.667,10.409,0.535,14.894,0.054
		c4.492-0.465,8.408-1.287,11.6-2.111c1.592-0.399,3.033-0.836,4.225-1.205c0.595-0.19,1.145-0.367,1.649-0.528
		c0.495-0.154,0.963-0.307,1.424-0.472c1.777-0.645,2.724-0.988,2.724-0.988L480.932,133.722z"/>
</g>
</svg>
